/* XPM */
static char *result[] = {
/* columns rows colors chars-per-pixel */
"32 32 17 1 ",
"  c black",
". c #010000",
"X c #000100",
"o c #010100",
"O c #000001",
"+ c #010001",
"@ c #000101",
"# c #010101",
"$ c #785448",
"% c #795448",
"& c #785548",
"* c #795548",
"= c #785449",
"- c #795449",
"; c #785549",
": c #795549",
"> c None",
/* pixels */
">>>>>>>>>>>>>>>>>>>>>>>>>>>>>>>>",
">>>>>>>>>>>>>>>>>>>>>>>>>>>>>>>>",
">>>$:&%%-;$&*$ X;;-=$;*--=:%=>>>",
">>>&*;=*-:==&&.O;:----;-&=%;:>>>",
">>>-::-&$&-$%*XX$=$=&*-:=*%=:>>>",
">>>*:&=-=*$&=:o#*$;*%;&&=*==:>>>",
">>>$&;=*=$&%&-+X;*$;**$*=::=:>>>",
">>>*:&&;:-*&*$oo;=:*%-:-==;$:>>>",
">>>@O Oo#+# o# +X@. oX+OOoo@O>>>",
">>>OO@.XOo@o@ @ XX+ +++Oo +o.>>>",
">>>&;&;o@-=$;%=*&*&%X@&=&$$&:>>>",
">>>=;:%#.%%&;--%;-=:oO-=*$=%=>>>",
">>>%&&*.+=&-;-*$**:%XO:&*&*;;>>>",
">>>*-:%#X$=*$;%=-$&$.+-*;;-$=>>>",
">>>-;-*OO=%*=-&%$$-$X $%&:*;$>>>",
">>>--$-XO&$-$;===-=$O#=&$*=%&>>>",
">>>X.XO.ooXXo  .@@.X. +Oo+  o>>>",
">>>X@##@ @ XX.o ooo##X+ o.O X>>>",
">>>&&=&:*$&*X.=&***=:&:* +-:*>>>",
">>>=:&;%$%&&XX:&-;&&;:**.@::&>>>",
">>>*-&-=-%;&+.;*:*;;*;;:o.$&=>>>",
">>>&;-&;&&$;##;;%;%=*%%%  %*%>>>",
">>>:=;;-$::=O@%=*::$;-$;  %$&>>>",
">>>%$:;&-%**o#::$$$;*;;=oX&%&>>>",
">>> .+X..O.@ +X  @ #+ #oo@...>>>",
">>>.+.o#o@  @   + + #++oO+#XO>>>",
">>>:-*#.*******&**@O***%&*&**>>>",
">>>&&%@ -;;%$%*;&%X+=&;;-=$$=>>>",
">>>;:$#.-$-=:=%:%=. &%:*%*&**>>>",
">>>$-- X=%=:;&-=-& .:;;-$:%==>>>",
">>>>>>>>>>>>>>>>>>>>>>>>>>>>>>>>",
">>>>>>>>>>>>>>>>>>>>>>>>>>>>>>>>"
};
